<svg xmlns="http://www.w3.org/2000/svg" width="87.145" height="63.964" viewBox="0 0 87.145 63.964"><g transform="translate(-14919.111 -14820)"><g transform="translate(14710.365 14643.945)"><path d="M92.569,93v11.433a1.992,1.992,0,0,0,1.993,1.993H105.85a1.994,1.994,0,0,0,1.994-1.993V56.421Z" transform="translate(177.158 133.591)" fill="#1e22aa"/><path d="M58.014,44.462a4.823,4.823,0,0,0-.48-.948,2,2,0,0,0-.653-.722,1.566,1.566,0,0,0-.693-.289h0a1.372,1.372,0,0,0-.235-.038H55.8l-.019,0H44.471a1.994,1.994,0,0,0-1.962,1.654,1.963,1.963,0,0,0-.033.345v59.821a2,2,0,0,0,2,2H55.786a2,2,0,0,0,2-2V81.122l7.234,17.321L72.692,79.9Z" transform="translate(177.158 133.591)" fill="#1e22aa"/><path d="M87,44.467a2.035,2.035,0,0,0-2.128-1.995H73.533c-1.384-.036-2.075,2-2.075,2L67.18,54.81,74.9,73.443Z" transform="translate(177.158 133.591)" fill="#e31c79"/><path d="M94.273,42.465h11.368a2.041,2.041,0,0,1,2.131,2L82.791,104.283c-.542,1.23-.895,2-2,2H69.478a1.883,1.883,0,0,1-2-2L92.231,44.462S92.91,42.465,94.273,42.465Z" transform="translate(177.158 133.591)" fill="#e31c79"/></g><path d="M82.14,39.986H52a5,5,0,0,1-5-5V20.259H40.141V34.988a5,5,0,0,1-5,5H5a5.007,5.007,0,0,1-5-5V14.94H.007L0,14.933,10.887,4.041v5.34L5.326,14.94H81.8L72.529,5.72l1.716-4.126,12.9,13.34-.008.007h.008V34.988A5.007,5.007,0,0,1,82.14,39.986Z" transform="translate(14919.112 14825)" fill="#f07"/></g></svg>